<svg xmlns="http://www.w3.org/2000/svg" xmlns:xlink="http://www.w3.org/1999/xlink" width="243" height="243" viewBox="0 0 243 243"><defs><style>.a{fill:url(#a);}.b{fill:#fff;}.c{filter:url(#d);}.d{filter:url(#b);}</style><linearGradient id="a" x1="0.145" y1="0.5" x2="1.206" y2="0.5" gradientUnits="objectBoundingBox"><stop offset="0" stop-opacity="0.78"/><stop offset="0.709" stop-color="#8a2121"/><stop offset="1" stop-color="#da1919"/></linearGradient><filter id="b" x="0" y="0" width="243" height="243" filterUnits="userSpaceOnUse"><feOffset dx="3" dy="3" input="SourceAlpha"/><feGaussianBlur stdDeviation="3" result="c"/><feFlood flood-color="#ff1717" flood-opacity="0.839"/><feComposite operator="in" in2="c"/><feComposite in="SourceGraphic"/></filter><filter id="d" x="0" y="0" width="243" height="243" filterUnits="userSpaceOnUse"><feOffset dx="5" dy="5" input="SourceAlpha"/><feGaussianBlur stdDeviation="3" result="e"/><feFlood flood-color="#e0c4be" result="f"/><feComposite operator="out" in="SourceGraphic" in2="e"/><feComposite operator="in" in="f"/><feComposite operator="in" in2="SourceGraphic"/></filter></defs><g transform="translate(6 6)"><g data-type="innerShadowGroup"><g class="d" transform="matrix(1, 0, 0, 1, -6, -6)"><path class="a" d="M22.015,4.868h182.95c5.523,0,20.035,8.171,20.035,24.6V207.976c0,16.431-14.512,21.892-20.035,21.892H22.015C4.465,229.868,0,207.976,0,207.976V29.47C0,13.039,16.493,4.868,22.015,4.868Z" transform="translate(6 1.13)"/></g><g class="c" transform="matrix(1, 0, 0, 1, -6, -6)"><path class="b" d="M22.015,4.868h182.95c5.523,0,20.035,8.171,20.035,24.6V207.976c0,16.431-14.512,21.892-20.035,21.892H22.015C4.465,229.868,0,207.976,0,207.976V29.47C0,13.039,16.493,4.868,22.015,4.868Z" transform="translate(6 1.13)"/></g></g></g></svg>