<svg xmlns="http://www.w3.org/2000/svg" width="850.539" height="740.83" viewBox="0 0 850.539 740.83"><defs><style>.a{fill:#3b3d3e;}.b{fill:#2f2e41;}.c{fill:#fff;}.d{fill:#e6e6e6;}.e{fill:#6c63ff;}.f{fill:#ffb6b6;}.g{fill:#cacaca;}.h{fill:#3f3d56;}</style></defs><g transform="translate(0 0)"><path class="a" d="M941.609,465.125a354.21,354.21,0,0,1-98.85,245.9q-5.745,6.015-11.8,11.74-9.225,8.775-19.07,16.87a353.934,353.934,0,0,1-217.58,80.69q-3.975.09-7.98.09c-63.43,0-143.21-33.88-215.61-80.78q-8.985-5.82-17.81-11.91-4.125-2.82-8.21-5.72a730.442,730.442,0,0,1-79.32-64.8,514.106,514.106,0,0,1-45.75-48.92c-55.63-68.62-67.9-130.45,11.41-143.16q14.085-2.25,27.34-4.81,19.2-3.69,36.75-7.97,23.64-5.745,44.42-12.46,6.99-2.25,13.66-4.59c65.74-23.09,109.74-53.2,139.69-85.87q7.62-8.295,14.05-16.79a236.057,236.057,0,0,0,17.83-27.12,254.9,254.9,0,0,0,18.41-41.05l.27-.78c23.83-68.74,16.58-132.5,42.87-153.84,112.38-91.23,252.29,38.69,317.96,191.9q4.965,11.58,9.34,23.3,1.965,5.235,3.79,10.49,4.8,13.695,8.71,27.46,1.5,5.25,2.86,10.49c.97,3.77,1.9,7.53,2.76,11.29C938.139,412.3,941.609,439.455,941.609,465.125Z" transform="translate(-174.731 -79.585)"/><path class="b" d="M594.309,820.325q-3.975.09-7.98.09c-63.43,0-143.21-33.88-215.61-80.78q-8.985-5.82-17.81-11.91l5.16-31.4,156.21-20.74,78.4,59.95Z" transform="translate(-174.731 -79.585)"/><path class="c" d="M601.829,259.635h-22.26a2.6,2.6,0,0,0-2.6,2.6V284.5a2.593,2.593,0,0,0,2.6,2.59h22.26a2.6,2.6,0,0,0,2.6-2.59v-22.27A2.608,2.608,0,0,0,601.829,259.635Z" transform="translate(-174.731 -79.585)"/><path class="d" d="M601.829,297.585h-22.26a2.6,2.6,0,0,0-2.6,2.6v22.27a2.592,2.592,0,0,0,2.6,2.59h22.26a2.6,2.6,0,0,0,2.6-2.59v-22.27A2.608,2.608,0,0,0,601.829,297.585Z" transform="translate(-174.731 -79.585)"/><path class="d" d="M601.829,335.535h-22.26a2.6,2.6,0,0,0-2.6,2.6V360.4a2.595,2.595,0,0,0,2.6,2.6h22.26a2.6,2.6,0,0,0,2.6-2.6v-22.26A2.608,2.608,0,0,0,601.829,335.535Z" transform="translate(-174.731 -79.585)"/><path class="d" d="M604.389,375.625a2.617,2.617,0,0,0-2.56-2.14h-22.26a2.6,2.6,0,0,0-2.6,2.6v22.26a2.595,2.595,0,0,0,2.6,2.6h22.26a2.6,2.6,0,0,0,2.6-2.6v-22.26a2.311,2.311,0,0,0-.04-.46Z" transform="translate(-174.731 -79.585)"/><path class="d" d="M602.839,411.635a2.634,2.634,0,0,0-1.01-.2h-22.26a2.595,2.595,0,0,0-2.6,2.6v22.26a2.588,2.588,0,0,0,2.6,2.6h22.26a2.6,2.6,0,0,0,2.6-2.6v-22.26a2.616,2.616,0,0,0-1.59-2.4Z" transform="translate(-174.731 -79.585)"/><path class="d" d="M648.589,259.635h-22.26a2.6,2.6,0,0,0-2.6,2.6V284.5a2.593,2.593,0,0,0,2.6,2.59h22.26a2.6,2.6,0,0,0,2.6-2.59v-22.27a2.608,2.608,0,0,0-2.6-2.6Z" transform="translate(-174.731 -79.585)"/><path class="e" d="M648.589,297.585h-22.26a2.6,2.6,0,0,0-2.6,2.6v22.27a2.592,2.592,0,0,0,2.6,2.59h22.26a2.6,2.6,0,0,0,2.6-2.59v-22.27a2.607,2.607,0,0,0-2.6-2.6Z" transform="translate(-174.731 -79.585)"/><path class="e" d="M648.589,335.535h-22.26a2.6,2.6,0,0,0-2.6,2.6V360.4a2.595,2.595,0,0,0,2.6,2.6h22.26a2.6,2.6,0,0,0,2.6-2.6v-22.26a2.608,2.608,0,0,0-2.6-2.6Z" transform="translate(-174.731 -79.585)"/><path class="e" d="M648.589,373.485h-22.26a2.593,2.593,0,0,0-2.46,1.78,2.477,2.477,0,0,0-.14.82v22.26a2.595,2.595,0,0,0,2.6,2.6h22.26a2.6,2.6,0,0,0,2.6-2.6v-22.26a2.608,2.608,0,0,0-2.6-2.6Z" transform="translate(-174.731 -79.585)"/><path class="d" d="M648.589,411.435h-22.26a2.595,2.595,0,0,0-2.6,2.6V436.3a2.595,2.595,0,0,0,2.6,2.6h22.26a2.6,2.6,0,0,0,2.6-2.6v-22.26a2.6,2.6,0,0,0-2.6-2.6Z" transform="translate(-174.731 -79.585)"/><path class="e" d="M695.349,259.635h-22.26a2.6,2.6,0,0,0-2.6,2.6V284.5a2.593,2.593,0,0,0,2.6,2.59h22.26a2.6,2.6,0,0,0,2.6-2.59v-22.27a2.608,2.608,0,0,0-2.6-2.6Z" transform="translate(-174.731 -79.585)"/><path class="e" d="M695.349,297.585h-22.26a2.6,2.6,0,0,0-2.6,2.6v22.27a2.592,2.592,0,0,0,2.6,2.59h22.26a2.6,2.6,0,0,0,2.6-2.59v-22.27a2.607,2.607,0,0,0-2.6-2.6Z" transform="translate(-174.731 -79.585)"/><path class="d" d="M695.349,335.535h-22.26a2.6,2.6,0,0,0-2.6,2.6V360.4a2.595,2.595,0,0,0,2.6,2.6h22.26a2.6,2.6,0,0,0,2.6-2.6v-22.26A2.608,2.608,0,0,0,695.349,335.535Z" transform="translate(-174.731 -79.585)"/><path class="e" d="M695.349,373.485h-22.26a2.6,2.6,0,0,0-2.6,2.6v22.26a2.595,2.595,0,0,0,2.6,2.6h22.26a2.6,2.6,0,0,0,2.6-2.6v-22.26A2.608,2.608,0,0,0,695.349,373.485Z" transform="translate(-174.731 -79.585)"/><path class="e" d="M695.349,411.435h-22.26a2.595,2.595,0,0,0-2.6,2.6V436.3a2.595,2.595,0,0,0,2.6,2.6h22.26a2.6,2.6,0,0,0,2.6-2.6v-22.26a2.6,2.6,0,0,0-2.6-2.6Z" transform="translate(-174.731 -79.585)"/><path class="e" d="M742.109,259.635h-22.26a2.6,2.6,0,0,0-2.6,2.6V284.5a2.593,2.593,0,0,0,2.6,2.59h22.26a2.6,2.6,0,0,0,2.6-2.59v-22.27a2.608,2.608,0,0,0-2.6-2.6Z" transform="translate(-174.731 -79.585)"/><path class="c" d="M742.109,297.585h-22.26a2.6,2.6,0,0,0-2.6,2.6v22.27a2.592,2.592,0,0,0,2.6,2.59h22.26a2.6,2.6,0,0,0,2.6-2.59v-22.27A2.608,2.608,0,0,0,742.109,297.585Z" transform="translate(-174.731 -79.585)"/><path class="c" d="M742.109,335.535h-22.26a2.6,2.6,0,0,0-2.6,2.6V360.4a2.595,2.595,0,0,0,2.6,2.6h22.26a2.6,2.6,0,0,0,2.6-2.6v-22.26A2.608,2.608,0,0,0,742.109,335.535Z" transform="translate(-174.731 -79.585)"/><path class="d" d="M742.109,373.485h-22.26a2.6,2.6,0,0,0-2.6,2.6v22.26a2.595,2.595,0,0,0,2.6,2.6h22.26a2.6,2.6,0,0,0,2.6-2.6v-22.26A2.608,2.608,0,0,0,742.109,373.485Z" transform="translate(-174.731 -79.585)"/><path class="e" d="M742.109,411.435h-22.26a2.595,2.595,0,0,0-2.6,2.6V436.3a2.6,2.6,0,0,0,2.6,2.6h22.26a2.6,2.6,0,0,0,2.6-2.6v-22.26a2.6,2.6,0,0,0-2.6-2.6Z" transform="translate(-174.731 -79.585)"/><path class="c" d="M788.869,259.635H766.6a2.6,2.6,0,0,0-2.59,2.6V284.5a2.59,2.59,0,0,0,2.59,2.59h22.27a2.6,2.6,0,0,0,2.6-2.59v-22.27a2.608,2.608,0,0,0-2.6-2.6Z" transform="translate(-174.731 -79.585)"/><path class="c" d="M788.869,297.585H766.6a2.6,2.6,0,0,0-2.59,2.6v22.27a2.59,2.59,0,0,0,2.59,2.59h22.271a2.6,2.6,0,0,0,2.6-2.59v-22.27A2.608,2.608,0,0,0,788.869,297.585Z" transform="translate(-174.731 -79.585)"/><path class="c" d="M788.869,335.535H766.6a2.6,2.6,0,0,0-2.59,2.6V360.4a2.593,2.593,0,0,0,2.59,2.6h22.27a2.6,2.6,0,0,0,2.6-2.6v-22.26A2.608,2.608,0,0,0,788.869,335.535Z" transform="translate(-174.731 -79.585)"/><path class="e" d="M788.869,373.485H766.6a2.6,2.6,0,0,0-2.59,2.6v22.26a2.593,2.593,0,0,0,2.59,2.6h22.27a2.6,2.6,0,0,0,2.6-2.6v-22.26a2.608,2.608,0,0,0-2.6-2.6Z" transform="translate(-174.731 -79.585)"/><path class="d" d="M788.869,411.435H766.6a2.593,2.593,0,0,0-2.59,2.6V436.3a2.593,2.593,0,0,0,2.59,2.6h22.27a2.6,2.6,0,0,0,2.6-2.6v-22.26a2.6,2.6,0,0,0-2.6-2.6Z" transform="translate(-174.731 -79.585)"/><path class="c" d="M835.629,259.635h-22.27a2.6,2.6,0,0,0-2.59,2.6V284.5a2.59,2.59,0,0,0,2.59,2.59h22.271a2.6,2.6,0,0,0,2.6-2.59v-22.27A2.608,2.608,0,0,0,835.629,259.635Z" transform="translate(-174.731 -79.585)"/><path class="c" d="M835.629,297.585h-22.27a2.6,2.6,0,0,0-2.59,2.6v22.27a2.59,2.59,0,0,0,2.589,2.59h22.271a2.6,2.6,0,0,0,2.6-2.59v-22.27A2.608,2.608,0,0,0,835.629,297.585Z" transform="translate(-174.731 -79.585)"/><path class="e" d="M835.629,335.535h-22.27a2.6,2.6,0,0,0-2.59,2.6V360.4a2.593,2.593,0,0,0,2.59,2.6h22.27a2.6,2.6,0,0,0,2.6-2.6v-22.26a2.608,2.608,0,0,0-2.6-2.6Z" transform="translate(-174.731 -79.585)"/><path class="d" d="M835.629,373.485h-22.27a2.6,2.6,0,0,0-2.59,2.6v22.26a2.593,2.593,0,0,0,2.59,2.6h22.27a2.6,2.6,0,0,0,2.6-2.6v-22.26a2.608,2.608,0,0,0-2.6-2.6Z" transform="translate(-174.731 -79.585)"/><path class="c" d="M835.629,411.435h-22.27a2.593,2.593,0,0,0-2.59,2.6V436.3a2.593,2.593,0,0,0,2.59,2.6h22.27a2.6,2.6,0,0,0,2.6-2.6v-22.26a2.6,2.6,0,0,0-2.6-2.6Z" transform="translate(-174.731 -79.585)"/><path class="e" d="M882.389,259.635h-22.27a2.6,2.6,0,0,0-2.59,2.6V284.5a2.59,2.59,0,0,0,2.59,2.59h22.271a2.6,2.6,0,0,0,2.6-2.59v-22.27A2.608,2.608,0,0,0,882.389,259.635Z" transform="translate(-174.731 -79.585)"/><path class="e" d="M882.389,297.585h-22.27a2.6,2.6,0,0,0-2.59,2.6v22.27a2.59,2.59,0,0,0,2.589,2.59h22.271a2.6,2.6,0,0,0,2.6-2.59v-22.27A2.608,2.608,0,0,0,882.389,297.585Z" transform="translate(-174.731 -79.585)"/><path class="d" d="M882.389,335.535h-22.27a2.6,2.6,0,0,0-2.59,2.6V360.4a2.592,2.592,0,0,0,2.59,2.6h22.27a2.6,2.6,0,0,0,2.6-2.6v-22.26a2.608,2.608,0,0,0-2.6-2.6Z" transform="translate(-174.731 -79.585)"/><path class="c" d="M882.389,373.485h-22.27a2.6,2.6,0,0,0-2.59,2.6v22.26a2.593,2.593,0,0,0,2.59,2.6h22.27a2.6,2.6,0,0,0,2.6-2.6v-22.26a2.608,2.608,0,0,0-2.6-2.6Z" transform="translate(-174.731 -79.585)"/><path class="e" d="M882.389,411.435h-22.27a2.593,2.593,0,0,0-2.59,2.6V436.3a2.593,2.593,0,0,0,2.59,2.6h22.27a2.6,2.6,0,0,0,2.6-2.6v-22.26a2.6,2.6,0,0,0-2.6-2.6Z" transform="translate(-174.731 -79.585)"/><path class="e" d="M929.149,259.635h-22.27a2.6,2.6,0,0,0-2.59,2.6V284.5a2.591,2.591,0,0,0,2.59,2.59h22.27a2.6,2.6,0,0,0,2.6-2.59v-22.27A2.608,2.608,0,0,0,929.149,259.635Z" transform="translate(-174.731 -79.585)"/><path class="e" d="M929.149,297.585h-22.27a2.6,2.6,0,0,0-2.59,2.6v22.27a2.59,2.59,0,0,0,2.589,2.59h22.271a2.6,2.6,0,0,0,2.6-2.59v-22.27A2.608,2.608,0,0,0,929.149,297.585Z" transform="translate(-174.731 -79.585)"/><path class="d" d="M929.149,335.535h-22.27a2.6,2.6,0,0,0-2.59,2.6V360.4a2.592,2.592,0,0,0,2.59,2.6h22.27a2.6,2.6,0,0,0,2.6-2.6v-22.26a2.608,2.608,0,0,0-2.6-2.6Z" transform="translate(-174.731 -79.585)"/><path class="e" d="M929.149,373.485h-22.27a2.6,2.6,0,0,0-2.59,2.6v22.26a2.593,2.593,0,0,0,2.59,2.6h22.27a2.6,2.6,0,0,0,2.6-2.6v-22.26A2.608,2.608,0,0,0,929.149,373.485Z" transform="translate(-174.731 -79.585)"/><path class="e" d="M929.149,411.435h-22.27a2.593,2.593,0,0,0-2.59,2.6V436.3a2.593,2.593,0,0,0,2.59,2.6h22.27a2.6,2.6,0,0,0,2.6-2.6v-22.26a2.6,2.6,0,0,0-2.6-2.6Z" transform="translate(-174.731 -79.585)"/><path class="d" d="M975.909,259.635h-22.27a2.6,2.6,0,0,0-2.59,2.6V284.5a2.59,2.59,0,0,0,2.59,2.59h22.27a2.6,2.6,0,0,0,2.6-2.59v-22.27A2.608,2.608,0,0,0,975.909,259.635Z" transform="translate(-174.731 -79.585)"/><path class="e" d="M975.909,297.585h-22.27a2.6,2.6,0,0,0-2.59,2.6v22.27a2.59,2.59,0,0,0,2.59,2.59h22.271a2.6,2.6,0,0,0,2.6-2.59v-22.27A2.608,2.608,0,0,0,975.909,297.585Z" transform="translate(-174.731 -79.585)"/><path class="e" d="M975.909,335.535h-22.27a2.6,2.6,0,0,0-2.59,2.6V360.4a2.592,2.592,0,0,0,2.59,2.6h22.27a2.6,2.6,0,0,0,2.6-2.6v-22.26a2.608,2.608,0,0,0-2.6-2.6Z" transform="translate(-174.731 -79.585)"/><path class="e" d="M975.909,373.485h-22.27a2.6,2.6,0,0,0-2.59,2.6v22.26a2.593,2.593,0,0,0,2.59,2.6h22.27a2.6,2.6,0,0,0,2.6-2.6v-22.26A2.608,2.608,0,0,0,975.909,373.485Z" transform="translate(-174.731 -79.585)"/><path class="d" d="M975.909,411.435h-22.27a2.593,2.593,0,0,0-2.59,2.6V436.3a2.593,2.593,0,0,0,2.59,2.6h22.27a2.6,2.6,0,0,0,2.6-2.6v-22.26a2.6,2.6,0,0,0-2.6-2.6Z" transform="translate(-174.731 -79.585)"/><path class="d" d="M1022.67,259.635H1000.4a2.6,2.6,0,0,0-2.59,2.6V284.5a2.591,2.591,0,0,0,2.589,2.59h22.271a2.6,2.6,0,0,0,2.6-2.59v-22.27a2.608,2.608,0,0,0-2.6-2.6Z" transform="translate(-174.731 -79.585)"/><path class="d" d="M1022.67,297.585H1000.4a2.6,2.6,0,0,0-2.59,2.6v22.27a2.591,2.591,0,0,0,2.59,2.59h22.271a2.6,2.6,0,0,0,2.6-2.59v-22.27a2.608,2.608,0,0,0-2.6-2.6Z" transform="translate(-174.731 -79.585)"/><path class="e" d="M1022.67,335.535H1000.4a2.6,2.6,0,0,0-2.59,2.6V360.4a2.593,2.593,0,0,0,2.59,2.6h22.27a2.6,2.6,0,0,0,2.6-2.6v-22.26a2.608,2.608,0,0,0-2.6-2.6Z" transform="translate(-174.731 -79.585)"/><path class="d" d="M1022.67,373.485H1000.4a2.6,2.6,0,0,0-2.59,2.6v22.26a2.593,2.593,0,0,0,2.59,2.6h22.27a2.6,2.6,0,0,0,2.6-2.6v-22.26a2.608,2.608,0,0,0-2.6-2.6Z" transform="translate(-174.731 -79.585)"/><path class="d" d="M1022.67,411.435H1000.4a2.593,2.593,0,0,0-2.59,2.6V436.3a2.593,2.593,0,0,0,2.59,2.6h22.27a2.6,2.6,0,0,0,2.6-2.6v-22.26a2.6,2.6,0,0,0-2.6-2.6Z" transform="translate(-174.731 -79.585)"/><path class="b" d="M336.1,660.051h-.62l.53-.07Z"/><circle class="f" cx="68.322" cy="68.322" r="68.322" transform="translate(214.492 108.411)"/><path class="b" d="M517.377,206.226s17.869-34.161-21.444-37.266c0,0-33.515-30.4-67.676-5.558,0,0-18.633,0-28.823,21.086,0,0-14.655-5.558-17.875,9.317,0,0-10.724,31.055,0,59.005s14.285,31.055,14.285,31.055-17.621-58.6,25.27-61.7,90.887-29.909,94.461,4.251,8.953,42.578,8.953,42.578S558.479,220.2,517.377,206.226Z" transform="translate(-174.731 -79.585)"/><path class="g" d="M634.279,424.7l-.22,1.16-2.47,13.04-17.07,90.2-1.01,5.31-2.12,11.23-2.9,15.32-6.43,33.95-1.84,9.73-.69,3.65-.24,1.28-1.91,10.07-.58,3.04-4.66,34.53-4.07,30.09,13.62,13.62-8.12,8.12-5.33,30.53.01.07H370.719q-13.2-8.55-26.02-17.63l1.79-13.4s6.16-23.93,3.57-26.79-8.24-7.97-8.24-7.97l7.13-16.64.99-2.31-1.66-34.43-.04-.83-.55-11.35-.07-1.46-.11-2.19-2.11-43.68-.04-.72-.64-13.24-.6-12.59-.26-5.31-2.57-53.13-1.74-36.08-1.52-31.41,6.11-2.07,65.35-22.21L436.559,349l56.34.42,27.58.21,46.02,42.68,10.47,5,.08.04,7.51,3.59,19.04,9.09,20.13,9.62,10.33,4.93Z" transform="translate(-174.731 -79.585)"/><path class="f" d="M443.84,637.136a30.286,30.286,0,0,1-40.664-22.43L296.617,599.588l37.043-41.9,95.511,20.78a30.45,30.45,0,0,1,14.669,58.67Z" transform="translate(-174.731 -79.585)"/><path class="g" d="M396.329,560.955a13.522,13.522,0,0,0-7.89-4.87l-43.72-9.09-4.49-.93a18.933,18.933,0,0,1-12.53-9.07,19.16,19.16,0,0,1-2.45-7.9,18.9,18.9,0,0,1,.89-7.48l15.15-45.65,9.83-29.62a41.794,41.794,0,0,0,2.09-11.05,43.349,43.349,0,0,0-9.07-28.89,42.693,42.693,0,0,0-49.01-13.64c-.25.09-.51.19-.76.29a42.583,42.583,0,0,0-25.31,28.41l-10.68,38.85-22.03,80.09a57.766,57.766,0,0,0,48.96,72.68l62.97,7.38,29.14,3.42a13.5,13.5,0,0,0,14.84-10.73,4.9,4.9,0,0,0,.11-.55l.7-4.32,5.93-36.38.06-.37a13.475,13.475,0,0,0-2.73-10.58Z" transform="translate(-174.731 -79.585)"/><path class="f" d="M511.714,638.3a30.286,30.286,0,0,0,37.095-27.94L652.17,580.368l-42.581-36.259-91.626,34.042a30.45,30.45,0,0,0-6.249,60.152Z" transform="translate(-174.731 -79.585)"/><path class="g" d="M703.489,513.275l-49.16-113.14a42.819,42.819,0,0,0-20.27-21.35,43.357,43.357,0,0,0-8.78-3.2c-.47-.12-.94-.23-1.41-.32a42.132,42.132,0,0,0-19.48.36,42.813,42.813,0,0,0-27.34,21.73,1,1,0,0,0-.08.14,43.1,43.1,0,0,0-.37,38.85l.61,1.22,34.74,69.77a18.9,18.9,0,0,1-10.5,26.19l-2.44.88-43.88,15.85a13.5,13.5,0,0,0-8.33,16.79l.11.35,12.3,39.36c.06.18.12.36.19.54a7.052,7.052,0,0,0,.4.99,13.482,13.482,0,0,0,15.81,7.53l23.68-6.25,4.83-1.28,61.15-16.15a57.76,57.76,0,0,0,38.22-78.86Z" transform="translate(-174.731 -79.585)"/><path class="h" d="M219.629,608.285a514.113,514.113,0,0,0,45.75,48.92h451.97a16.446,16.446,0,0,1,16.42,16.43l.65,114.53a355.427,355.427,0,0,0,77.47-48.53q9.84-8.085,19.07-16.87,6.045-5.73,11.8-11.74a355.627,355.627,0,0,0,68.82-102.74Z" transform="translate(-174.731 -79.585)"/><path class="c" d="M842.759,711.025q-5.745,6.015-11.8,11.74h-96.21v-11.74Z" transform="translate(-174.731 -79.585)"/><path class="h" d="M633.379,335.535a5.538,5.538,0,0,0-4.87-2.9H300.669a5.554,5.554,0,0,0-5.54,5.55v196.22h338.93V338.185A5.385,5.385,0,0,0,633.379,335.535Z" transform="translate(-174.731 -79.585)"/><path class="h" d="M294.832,529.092v24.214a7.644,7.644,0,0,0,7.644,7.644h125.1v47.787h-1.662a.993.993,0,0,0-.993.993v3.324a.993.993,0,0,0,.993.993H503.57a.993.993,0,0,0,.993-.993v-3.324a.993.993,0,0,0-.993-.993h-1.662V560.95H627a7.644,7.644,0,0,0,7.644-7.644V529.092Z" transform="translate(-174.731 -79.585)"/><circle class="e" cx="31.306" cy="31.306" r="31.306" transform="translate(254.597 317.398)"/><path class="e" d="M540.4,252.585h-5c0-37.8-37.41-62.57-75.15-62.59a82.384,82.384,0,0,0-16.35,1.59c-6.06,1.21-12.35,2.66-18.53,4.55-24.37,7.47-46.97,21.91-46.97,56.45a78.589,78.589,0,0,0,2.54,19.88l-4.84,1.26a83.875,83.875,0,0,1-2.7-21.14c0-30.18,12.39-50.91,33.79-63.27,11.25-6.5,24.98-10.69,40.71-12.73a97.131,97.131,0,0,1,19.75-.6C511.049,179.1,540.4,212.385,540.4,252.585Z" transform="translate(-174.731 -79.585)"/><path class="e" d="M548.729,255.355l-1.97-14.56a15.914,15.914,0,0,0-18.25-13.56l-3.13.43a6.581,6.581,0,0,0-5.64,7.4l4.55,33.54a6.577,6.577,0,0,0,5.3,5.57,6.154,6.154,0,0,0,1.22.12,6.49,6.49,0,0,0,.879-.06l3.5-.47a15.792,15.792,0,0,0,10.74-6.43c.27-.38.53-.77.77-1.17A16.749,16.749,0,0,0,548.729,255.355Z" transform="translate(-174.731 -79.585)"/><path class="c" d="M523.359,228.275a6.431,6.431,0,0,0-2.33,1.92,6.548,6.548,0,0,0-1.29,4.87l4.55,33.54a6.577,6.577,0,0,0,5.3,5.57Z" transform="translate(-174.731 -79.585)"/><path class="h" d="M548.729,255.355l-1.97-14.56a15.71,15.71,0,0,0-5-9.56l4.53,33.37a6.175,6.175,0,0,0,.41,1.56,16.748,16.748,0,0,0,2.03-10.81Z" transform="translate(-174.731 -79.585)"/><ellipse class="h" cx="2.5" cy="7" rx="2.5" ry="7" transform="translate(354.068 172.721) rotate(-7.726)"/><ellipse class="h" cx="2.5" cy="7" rx="2.5" ry="7" transform="translate(351.068 154.721) rotate(-7.726)"/><ellipse class="h" cx="2.5" cy="7" rx="2.5" ry="7" transform="translate(370.068 161.721) rotate(-7.726)"/><path class="h" d="M460.249,189.995a82.383,82.383,0,0,0-16.35,1.59c-6.06,1.21-12.35,2.66-18.53,4.55-9.65-.47-16.75-2.97-18.18-6.82,11.25-6.5,24.98-10.69,40.71-12.73a97.132,97.132,0,0,1,19.75-.6,5.727,5.727,0,0,1,2.72,3.82C470.839,183.285,466.869,186.985,460.249,189.995Z" transform="translate(-174.731 -79.585)"/><path class="e" d="M396.409,287.285l-7.7-32.01a6.024,6.024,0,0,0-4.88-4.55,6.734,6.734,0,0,0-1-.08,6.027,6.027,0,0,0-1.4.17l-2.98.72a14.9,14.9,0,0,0-10.99,17.96l3.45,14.36a15.845,15.845,0,0,0,5.34,8.62,14.048,14.048,0,0,0,1.36.97,14.809,14.809,0,0,0,11.37,1.84l2.97-.72a5.84,5.84,0,0,0,2.17-1.01,5.993,5.993,0,0,0,2.29-6.27Z" transform="translate(-174.731 -79.585)"/><ellipse class="h" cx="2.5" cy="7" rx="2.5" ry="7" transform="translate(199.83 188.719) rotate(-13.53)"/><ellipse class="h" cx="2.5" cy="7" rx="2.5" ry="7" transform="translate(189.83 191.719) rotate(-13.53)"/><path class="c" d="M396.9,287.165l-7.7-32.01a6.532,6.532,0,0,0-5.29-4.92l10.51,43.72a6.511,6.511,0,0,0,2.48-6.79Z" transform="translate(-174.731 -79.585)"/><path class="h" d="M369.2,263.155a6.476,6.476,0,0,0-1.17-2.45,14.725,14.725,0,0,0-.57,8.79l3.45,14.36a15.845,15.845,0,0,0,5.34,8.62Z" transform="translate(-174.731 -79.585)"/></g></svg>