<svg xmlns="http://www.w3.org/2000/svg" width="26.55" height="35.999" viewBox="0 0 26.55 35.999"><defs><style>.a{fill:#fff;}</style></defs><path class="a" d="M13.276,27.84s-1.375.8.979,1.071a20.516,20.516,0,0,0,7.453-.316,13.066,13.066,0,0,0,1.982.969c-7.049,3.02-15.95-.177-10.415-1.723M12.414,23.9s-1.542,1.142.813,1.386a29.1,29.1,0,0,0,9.62-.462,4.276,4.276,0,0,0,1.48.9c-8.519,2.491-18.01.195-11.913-1.827m7.26-6.687c1.737,2-.456,3.8-.456,3.8s4.409-2.277,2.384-5.127c-1.892-2.658-3.342-3.978,4.51-8.532,0,0-12.324,3.076-6.438,9.859M29,30.756s1.018.839-1.121,1.486c-4.068,1.233-16.932,1.6-20.5.049-1.284-.559,1.125-1.335,1.881-1.5a4.912,4.912,0,0,1,1.242-.139c-1.429-1.007-9.234,1.976-3.964,2.83C20.9,35.815,32.722,32.436,29,30.756M13.938,19.815s-6.543,1.554-2.316,2.118a49.2,49.2,0,0,0,8.655-.093c2.709-.228,5.427-.715,5.427-.715a11.41,11.41,0,0,0-1.647.881c-6.643,1.747-19.479.934-15.783-.852a12.383,12.383,0,0,1,5.664-1.338m11.736,6.561c6.755-3.51,3.632-6.883,1.452-6.427a5.168,5.168,0,0,0-.772.207,1.231,1.231,0,0,1,.577-.445c4.313-1.517,7.629,4.472-1.392,6.843a.586.586,0,0,0,.135-.177M21.6,0s3.741,3.741-3.548,9.495c-5.844,4.616-1.332,7.248,0,10.254-3.411-3.08-5.915-5.787-4.236-8.309,2.466-3.7,9.3-5.5,7.785-11.441m-7,35.886c6.483.416,16.438-.229,16.674-3.3,0,0-.453,1.162-5.358,2.086a53.3,53.3,0,0,1-16.406.252s.83.686,5.09.958" transform="translate(-4.725)"/></svg>