<svg xmlns="http://www.w3.org/2000/svg" width="27" height="31.5" viewBox="0 0 27 31.5"><defs><style>.a{fill:#fff;}</style></defs><g transform="translate(2.25 4.5)"><path class="a" d="M11.244,27a2.288,2.288,0,0,1-1.17-.323L6.349,24.4c-.556-.321-.283-.436-.1-.5A8.034,8.034,0,0,0,8,23.03a.281.281,0,0,1,.278.023l2.792,1.653a.358.358,0,0,0,.347,0L22.33,18.219a.368.368,0,0,0,.17-.312V4.772a.376.376,0,0,0-.172-.318L11.421-2.2a.338.338,0,0,0-.344,0L.177,4.456A.372.372,0,0,0,0,4.772V17.907a.359.359,0,0,0,.174.309L2.982,19.9c1.66.858,2.643-.012,2.643-1.027V5.957a.326.326,0,0,1,.323-.332h1.6a.327.327,0,0,1,.323.332V18.873a3.263,3.263,0,0,1-3.459,3.6,4.649,4.649,0,0,1-2.57-.723l-2.924-1.742A2.455,2.455,0,0,1-2.25,17.906V4.584a2.448,2.448,0,0,1,1.172-2.1L10.079-4.19a2.369,2.369,0,0,1,2.344,0L23.578,2.48a2.451,2.451,0,0,1,1.172,2.1V17.906a2.459,2.459,0,0,1-1.172,2.106L12.423,26.675A2.287,2.287,0,0,1,11.249,27Z"/><path class="a" d="M14.691,18c-4.543,0-5.907-2.223-5.907-4.167a.326.326,0,0,1,.321-.333h1.443a.326.326,0,0,1,.321.282c.217,1.519,1.178,2.19,3.82,2.19,2.348,0,3.311-.727,3.311-2.017,0-.745-.243-1.3-3.9-1.666-3.053-.312-4.942-1.011-4.942-3.536,0-2.33,1.9-3.691,5.079-3.691,3.243,0,5.376.984,5.567,3.574a.352.352,0,0,1-.087.256A.318.318,0,0,1,19.485,9H18.037a.323.323,0,0,1-.314-.261c-.309-1.192-1.193-1.645-3.485-1.645-2.565,0-2.865.9-2.865,1.59,0,.841.354,1.086,3.818,1.559,3.429.468,5.058,1.133,5.058,3.625,0,2.516-2.026,4.133-5.56,4.133Z"/></g></svg>