<svg xmlns="http://www.w3.org/2000/svg" width="40" height="40" viewBox="0 0 40 40"><defs><style>.a{fill:#fff;}</style></defs><path class="a" d="M35.714,2.25H4.286A4.287,4.287,0,0,0,0,6.536V37.964A4.287,4.287,0,0,0,4.286,42.25H35.714A4.287,4.287,0,0,0,40,37.964V6.536A4.287,4.287,0,0,0,35.714,2.25ZM24.759,36.509c-.75.134-1.027-.33-1.027-.714,0-.482.018-2.946.018-4.937a3.479,3.479,0,0,0-1.009-2.741c3.3-.366,6.786-.821,6.786-6.527A4.584,4.584,0,0,0,28,18.107a5.584,5.584,0,0,0-.152-4.018c-1.241-.384-4.08,1.6-4.08,1.6a14.046,14.046,0,0,0-7.429,0s-2.839-1.982-4.08-1.6a5.541,5.541,0,0,0-.152,4.018,4.484,4.484,0,0,0-1.393,3.482c0,5.679,3.33,6.161,6.634,6.527a3.236,3.236,0,0,0-.946,1.991,3.133,3.133,0,0,1-4.312-1.241,3.111,3.111,0,0,0-2.277-1.527c-1.446-.018-.1.911-.1.911.964.446,1.643,2.161,1.643,2.161.866,2.652,5.009,1.759,5.009,1.759,0,1.241.018,3.259.018,3.625,0,.384-.268.848-1.027.714A14.813,14.813,0,0,1,5.339,22.375,14.169,14.169,0,0,1,19.8,7.955c8.2,0,14.839,6.223,14.839,14.42A14.677,14.677,0,0,1,24.759,36.509ZM16,31.054c-.17.036-.33-.036-.348-.152-.018-.134.1-.25.268-.286.17-.018.33.054.348.17S16.179,31.018,16,31.054Zm-.848-.08c0,.116-.134.214-.312.214-.2.018-.33-.08-.33-.214,0-.116.134-.214.313-.214C14.991,30.741,15.152,30.839,15.152,30.973Zm-1.223-.1c-.036.116-.214.17-.366.116-.17-.036-.286-.17-.25-.286s.214-.17.366-.134C13.857,30.625,13.973,30.759,13.929,30.875Zm-1.1-.482c-.08.1-.25.08-.384-.054-.134-.116-.17-.286-.08-.366.08-.1.25-.08.384.054C12.866,30.143,12.911,30.321,12.83,30.393Zm-.812-.812c-.08.054-.232,0-.33-.134s-.1-.286,0-.348c.1-.08.25-.018.33.116a.262.262,0,0,1,0,.366Zm-.58-.866c-.08.08-.214.036-.312-.054-.1-.116-.116-.25-.036-.312.08-.08.214-.036.313.054C11.5,28.518,11.518,28.652,11.437,28.714Zm-.6-.661a.168.168,0,0,1-.25.036c-.116-.054-.17-.152-.134-.232a.21.21,0,0,1,.25-.036C10.821,27.884,10.875,27.982,10.839,28.054Z" transform="translate(0 -2.25)"/></svg>