<svg xmlns="http://www.w3.org/2000/svg" width="36" height="36" viewBox="0 0 36 36"><defs><style>.a{fill:#fff;}</style></defs><path class="a" d="M18,0A18,18,0,1,0,36,18,18,18,0,0,0,18,0ZM10.443,11.52a2.077,2.077,0,0,1,2.108,1.8,1.954,1.954,0,0,1-1.233,2.109c-.514.257-.72.258-.823.1-.051-.1,0-.205.1-.309a2.1,2.1,0,0,0,.822-2.262.947.947,0,0,0-.875-.927c-1.8,0-4.371,4.011-4.011,6.943.155,1.131.824,2.469,2.263,2.469a3.732,3.732,0,0,0,1.44-.36,5.372,5.372,0,0,0,1.646-1.2,2.958,2.958,0,0,1,2.776-3.069c.773,0,1.389.308,1.44.875a.727.727,0,0,1-.771.873c-.205,0-.567-.051-.567-.255-.051-.207.464-.1.413-.567-.052-.309-.36-.411-.669-.411-1.08,0-1.7,1.491-1.543,2.417.052.413.258.823.67.823.307,0,.771-.465.925-1.132a.969.969,0,0,1,.875-.771c.153,0,.255.051.307.257v.207a3.46,3.46,0,0,0-.153.976.238.238,0,0,0,.255.257,3.309,3.309,0,0,0,1.166-.688c.176-.885.379-1.947.379-2.035.051-.36.205-.72.926-.72.154,0,.257.051.308.257v.207l-.2.926a3.549,3.549,0,0,1,2.262-1.491.419.419,0,0,1,.463.411,1.753,1.753,0,0,1-.1.669,16.781,16.781,0,0,0-.618,2.211c0,.205.052.411.31.411a2.679,2.679,0,0,0,1.644-1.131l.01-.006c0-.1-.01-.2-.01-.3a5.718,5.718,0,0,1,.156-1.491,1.159,1.159,0,0,1,.926-.771.287.287,0,0,1,.308.257.309.309,0,0,1-.051.205,6.529,6.529,0,0,0-.36,1.9,4.414,4.414,0,0,0,.153,1.182.113.113,0,0,0,.1.1,4.741,4.741,0,0,0,1.335-1.542,1.671,1.671,0,0,1-.72-1.44c0-1.08.669-1.646,1.287-1.646.514,0,.926.36.926,1.08a3.083,3.083,0,0,1-.411,1.44h.153a1.155,1.155,0,0,0,.876-.36.44.44,0,0,1,.2-.176,2.724,2.724,0,0,1,2.115-1.11c.72,0,1.386.308,1.438.873a.775.775,0,0,1-.772.927l0,0c-.207,0-.566-.052-.566-.258s.463-.1.411-.564c-.051-.309-.36-.413-.669-.413-1.029,0-1.695,1.337-1.542,2.417.051.413.257.875.667.875.309,0,.772-.462.978-1.131a1.034,1.034,0,0,1,.875-.771c.154,0,.255.051.308.257a3.164,3.164,0,0,1-.205.978,1.206,1.206,0,0,0-.205.926,1.3,1.3,0,0,0,.463.875.734.734,0,0,1,.1.153.218.218,0,0,1-.36.155,1.766,1.766,0,0,1-1.184-1.337,1.414,1.414,0,0,1-1.08.566,1.585,1.585,0,0,1-1.44-1.389,2.414,2.414,0,0,1,.112-.973,1.776,1.776,0,0,1-.934.3h-.255a6.857,6.857,0,0,1-1.905,1.955,1.344,1.344,0,0,1-.565.156.365.365,0,0,1-.308-.156,2.675,2.675,0,0,1-.289-1,3.648,3.648,0,0,1-2.18,1.208.824.824,0,0,1-.873-.825v-.564a12.384,12.384,0,0,1,.566-2.006.111.111,0,0,0-.1-.1A3.792,3.792,0,0,0,18.1,19.9l-.154.667a1.02,1.02,0,0,1-.873.772c-.154,0-.258-.052-.309-.258V20.88l.069-.35a3.761,3.761,0,0,1-1.613.762.7.7,0,0,1-.771-.618,1.354,1.354,0,0,1-1.131.618,1.491,1.491,0,0,1-1.293-.889,6.3,6.3,0,0,1-1.278,1.146,4.593,4.593,0,0,1-2.52.823A3.061,3.061,0,0,1,6.174,21.5a3.432,3.432,0,0,1-1.029-2.264,8.052,8.052,0,0,1,3.6-7.2,3.621,3.621,0,0,1,1.7-.514ZM25.1,16.457c-.156,0-.258.258-.258.514A1.737,1.737,0,0,0,25.3,18.1a2.61,2.61,0,0,0,.153-.875c0-.514-.206-.772-.36-.772Z"/></svg>