<svg xmlns="http://www.w3.org/2000/svg" width="23" height="23" viewBox="0 0 23 23"><defs><style>.a{fill:none;stroke:#fff;stroke-width:3px;}</style></defs><path class="a" d="M10.563.563a10,10,0,1,0,10,10A10,10,0,0,0,10.563.563Zm4.723,13.982a6.019,6.019,0,0,1-4.429,1.844,5.681,5.681,0,0,1-5.826-5.87,5.678,5.678,0,0,1,5.8-5.782A5.807,5.807,0,0,1,15,6.305a.484.484,0,0,1,.05.59l-.9,1.4a.484.484,0,0,1-.735.093,4.1,4.1,0,0,0-2.5-.963,2.886,2.886,0,0,0-2.98,3.068,3.018,3.018,0,0,0,3,3.213,3.953,3.953,0,0,0,2.643-1.154.484.484,0,0,1,.746.042l.523.715.467.639a.484.484,0,0,1-.022.6Z" transform="translate(0.938 0.938)"/></svg>