<svg xmlns="http://www.w3.org/2000/svg" width="24" height="28.344" viewBox="0 0 24 28.344"><defs><style>.a{fill:none;stroke:#fff;stroke-linecap:round;stroke-linejoin:round;stroke-width:3px;}</style></defs><g transform="translate(-6 -1.5)"><path class="a" d="M7.5,7.224C7.5,4.891,9.851,3,12.75,3H18v8.448H12.75c-2.9,0-5.25-1.891-5.25-4.224Z" transform="translate(0 0)"/><path class="a" d="M18,3h5.25c2.9,0,5.25,1.891,5.25,4.224s-2.351,4.224-5.25,4.224H18Z" transform="translate(0 0)"/><path class="a" d="M18,17.724c0-2.333,2.351-4.224,5.25-4.224s5.25,1.891,5.25,4.224-2.351,4.224-5.25,4.224S18,20.057,18,17.724Z" transform="translate(0 -2.052)"/><path class="a" d="M7.5,28.224C7.5,25.891,9.851,24,12.75,24H18v4.224c0,2.333-2.351,4.224-5.25,4.224S7.5,30.557,7.5,28.224Z" transform="translate(0 -4.104)"/><path class="a" d="M7.5,17.724c0-2.333,2.351-4.224,5.25-4.224H18v8.448H12.75c-2.9,0-5.25-1.891-5.25-4.224Z" transform="translate(0 -2.052)"/></g></svg>