<svg xmlns="http://www.w3.org/2000/svg" width="28.998" height="28.998" viewBox="0 0 28.998 28.998"><defs><style>.a{fill:#fff;}</style></defs><path class="a" d="M30.334,24.407V20.823a5.4,5.4,0,0,0-5.4-5.4H21.851a2.314,2.314,0,0,1-2.314-2.314V9.526a3.7,3.7,0,1,0-3.085,0v3.585a2.314,2.314,0,0,1-2.314,2.314H11.054a5.4,5.4,0,0,0-5.4,5.4v3.585a3.7,3.7,0,1,0,3.085,0V20.823a2.314,2.314,0,0,1,2.314-2.314h3.085a5.342,5.342,0,0,0,2.314-.54v6.438a3.7,3.7,0,1,0,3.085,0V17.969a5.342,5.342,0,0,0,2.314.54h3.085a2.314,2.314,0,0,1,2.314,2.314v3.585a3.7,3.7,0,1,0,3.085,0ZM17.995,4.033A2.136,2.136,0,1,1,15.86,6.17a2.135,2.135,0,0,1,2.135-2.136ZM7.2,29.9a2.136,2.136,0,1,1,2.135-2.136A2.136,2.136,0,0,1,7.2,29.9Zm10.8,0a2.136,2.136,0,1,1,2.135-2.136A2.136,2.136,0,0,1,17.995,29.9Zm10.8,0a2.136,2.136,0,1,1,2.135-2.136A2.136,2.136,0,0,1,28.792,29.9Z" transform="translate(-3.496 -2.468)"/></svg>