<svg xmlns="http://www.w3.org/2000/svg" width="34.875" height="33.003" viewBox="0 0 34.875 33.003"><defs><style>.a{fill:#fff;}</style></defs><path class="a" d="M11.665,27.137c0,.136-.162.246-.366.246-.232.02-.394-.089-.394-.246,0-.136.162-.246.366-.246C11.482,26.871,11.665,26.98,11.665,27.137ZM9.478,26.83c-.049.136.091.293.3.334a.334.334,0,0,0,.436-.136c.042-.136-.091-.293-.3-.355A.366.366,0,0,0,9.478,26.83Zm3.108-.116c-.2.048-.345.177-.323.334.021.136.2.225.415.177s.345-.177.323-.314S12.79,26.693,12.586,26.714ZM17.212.562C7.46.562,0,7.749,0,17.214A17.155,17.155,0,0,0,11.918,33.538c.9.157,1.216-.382,1.216-.826,0-.423-.021-2.757-.021-4.19,0,0-4.922,1.024-5.955-2.034,0,0-.8-1.986-1.955-2.5,0,0-1.61-1.071.113-1.051A3.733,3.733,0,0,1,8.03,24.7a3.781,3.781,0,0,0,5.126,1.426,3.752,3.752,0,0,1,1.125-2.3c-3.93-.423-7.9-.976-7.9-7.541a5.1,5.1,0,0,1,1.659-4.02,6.272,6.272,0,0,1,.183-4.634c1.47-.444,4.852,1.843,4.852,1.843a17.1,17.1,0,0,1,8.831,0s3.382-2.293,4.852-1.843a6.269,6.269,0,0,1,.183,4.634,5.236,5.236,0,0,1,1.814,4.02c0,6.586-4.141,7.111-8.072,7.541a3.974,3.974,0,0,1,1.2,3.167c0,2.3-.021,5.146-.021,5.705,0,.444.323.983,1.216.826a16.992,16.992,0,0,0,11.8-16.31C34.875,7.749,26.965.562,17.212.562ZM6.834,24.1c-.091.068-.07.225.049.355.113.109.274.157.366.068.091-.068.07-.225-.049-.355C7.087,24.059,6.926,24.011,6.834,24.1Zm-.759-.553c-.049.089.021.2.162.266a.213.213,0,0,0,.3-.048c.049-.089-.021-.2-.162-.266C6.237,23.459,6.124,23.479,6.075,23.547Zm2.278,2.43c-.113.089-.07.293.091.423.162.157.366.177.457.068.091-.089.049-.293-.091-.423C8.655,25.888,8.445,25.868,8.353,25.977Zm-.8-1c-.113.068-.113.246,0,.4s.3.225.394.157a.3.3,0,0,0,0-.423C7.847,24.953,7.664,24.885,7.552,24.974Z" transform="translate(0 -0.563)"/></svg>