<svg xmlns="http://www.w3.org/2000/svg" width="35.998" height="36" viewBox="0 0 35.998 36"><defs><style>.a{fill:#fff;}</style></defs><path class="a" d="M20.291.148A18,18,0,1,0,35.85,20.291,18,18,0,0,0,20.291.148ZM24,11.376a1.283,1.283,0,0,0-.889.375l-6.68,6.679-.46-.461L15,17.005c6.584-6.564,7.77-6.627,8.994-5.629ZM16.7,18.667l6.66-6.66a.93.93,0,1,1,1.271,1.355l-7.049,6.187Zm.5,1.041-1.65.357a.094.094,0,0,1-.086-.158l.968-.967.768.768Zm-4.2-.688,1.758-1.758,1.318,1.317-2.969.639a.111.111,0,0,1-.127-.059.108.108,0,0,1,.019-.139ZM7.524,28.107a.114.114,0,0,1-.1-.125.116.116,0,0,1,.033-.069h0l1.419-1.419,1.833,1.833-3.184-.221Zm3.637-1.884a.342.342,0,0,0-.175.384l.3,1.3a.188.188,0,0,1-.316.176h0l-1.4-1.4-.441-.442L14.771,20.6l2.73-.59,1.311,1.311a36.47,36.47,0,0,1-7.65,4.9Zm7.918-5.142h0l-1.258-1.258,7.049-6.187a1.428,1.428,0,0,0,.179-.19C24.824,15.462,22,18.312,19.08,21.081Zm5.486-9.69,0,0A2.733,2.733,0,0,1,28.25,7.362l-2.415,2.42a.179.179,0,0,0,0,.253l1.871,1.87a2.725,2.725,0,0,1-3.139-.514Zm3.867,0a2.571,2.571,0,0,1-.407.327h0l-1.81-1.811,2.3-2.3a2.733,2.733,0,0,1-.081,3.783Zm-.15-2.316a.215.215,0,0,0-.079.235.624.624,0,0,1-.08.675.208.208,0,1,0,.32.266,1.036,1.036,0,0,0,.13-1.126.207.207,0,0,0-.291-.05Z" transform="translate(0 0)"/></svg>