<svg xmlns="http://www.w3.org/2000/svg" width="51" height="51" viewBox="0 0 51 51"><defs><style>.a{fill:#fff;stroke:#000;}</style></defs><path class="a" d="M50.518,12.5C48.956,10.063,29.8,0,26.685,0S4.406,10.038,2.855,12.5s-1.56,22.539,0,25S23.569,50,26.685,50,48.956,39.949,50.517,37.5,52.079,14.941,50.518,12.5ZM33.142,40.451c-.431,0-4.4-3.493-4.092-3.778a6.247,6.247,0,0,1,1.89-.179c0-2.562.064-6.7.1-8.43,0-.2-.047-.335-.047-.571H22.388c0,.693-.05,3.535.148,7.117.025.443-.17.586-.618.58-1.091,0-2.183-.011-3.274-.008-.441,0-.632-.149-.618-.6.1-3.266.323-8.2-.016-20.769v-.31a7.224,7.224,0,0,1-1.858-.18c-.314-.285,3.719-3.778,4.144-3.778s4.433,3.494,4.121,3.778a7.111,7.111,0,0,1-1.806.18v.309c-.261,2.515-.215,7.772-.283,10.292h8.642c0-.444.042-3.393-.129-8.168-.011-.331.1-.5.453-.508,1.192-.008,2.385-.013,3.578-.006.373,0,.492.168.485.525-.4,18.681-.073,17.377-.073,20.541a8.461,8.461,0,0,1,1.9.18c.31.284-3.62,3.778-4.046,3.778Z" transform="translate(-1.188 0.5)"/></svg>