<svg xmlns="http://www.w3.org/2000/svg" width="30" height="31.501" viewBox="0 0 30 31.501"><defs><style>.a{fill:#fff;}</style></defs><path class="a" d="M29.45,14.1c-.516-2.173-1.493-3.811-3.576-3.811H23.189V13.62a4.715,4.715,0,0,1-4.473,4.767H11.564A3.747,3.747,0,0,0,7.989,22.2v7.158c0,2.039,1.687,3.234,3.576,3.818a11.486,11.486,0,0,0,7.152,0c1.8-.548,3.576-1.652,3.576-3.818V26.5H15.147v-.956H25.874c2.083,0,2.853-1.526,3.576-3.811a13.475,13.475,0,0,0,0-7.636ZM19.165,28.406a1.434,1.434,0,1,1-1.346,1.427A1.389,1.389,0,0,1,19.165,28.406ZM11.236,17.445h7.152a3.7,3.7,0,0,0,3.576-3.818V6.462a4.114,4.114,0,0,0-3.576-3.909,21.035,21.035,0,0,0-7.152.007C8.21,3.122,7.66,4.3,7.66,6.469V9.33h7.158v.956H4.975A4.524,4.524,0,0,0,.5,14.1a14.762,14.762,0,0,0,0,7.636c.509,2.222,1.721,3.811,3.8,3.811H6.763V22.113A4.664,4.664,0,0,1,11.236,17.445ZM10.788,7.418A1.389,1.389,0,0,1,9.442,5.991a1.349,1.349,0,1,1,2.692,0,1.389,1.389,0,0,1-1.346,1.427Z" transform="translate(0 -2.25)"/></svg>