<svg xmlns="http://www.w3.org/2000/svg" width="50" height="50" viewBox="0 0 50 50"><defs><style>.a{fill:#fff;}</style></defs><path class="a" d="M44.643,2.25H5.357A5.359,5.359,0,0,0,0,7.607V46.893A5.359,5.359,0,0,0,5.357,52.25H44.643A5.359,5.359,0,0,0,50,46.893V7.607A5.359,5.359,0,0,0,44.643,2.25ZM30.949,45.074c-.937.167-1.283-.413-1.283-.893,0-.6.022-3.683.022-6.172a4.348,4.348,0,0,0-1.261-3.426c4.129-.458,8.482-1.027,8.482-8.158A5.73,5.73,0,0,0,35,22.071a6.98,6.98,0,0,0-.19-5.022c-1.551-.48-5.1,2-5.1,2a17.557,17.557,0,0,0-9.286,0s-3.549-2.478-5.1-2a6.926,6.926,0,0,0-.19,5.022,5.605,5.605,0,0,0-1.741,4.353c0,7.1,4.163,7.7,8.292,8.158A4.045,4.045,0,0,0,20.5,37.071a3.916,3.916,0,0,1-5.391-1.551,3.888,3.888,0,0,0-2.846-1.908c-1.808-.022-.123,1.138-.123,1.138,1.205.558,2.054,2.7,2.054,2.7,1.083,3.315,6.261,2.2,6.261,2.2,0,1.551.022,4.074.022,4.531,0,.48-.335,1.06-1.283.893A18.516,18.516,0,0,1,6.674,27.406,17.711,17.711,0,0,1,24.754,9.382C35,9.382,43.3,17.161,43.3,27.406A18.346,18.346,0,0,1,30.949,45.074ZM20,38.254c-.212.045-.413-.045-.435-.19-.022-.167.123-.312.335-.357.212-.022.413.067.435.212S20.223,38.21,20,38.254Zm-1.06-.1c0,.145-.167.268-.391.268-.246.022-.413-.1-.413-.268,0-.145.167-.268.391-.268C18.739,37.864,18.94,37.987,18.94,38.154Zm-1.529-.123c-.045.145-.268.212-.458.145-.212-.045-.357-.212-.312-.357s.268-.212.458-.167C17.321,37.719,17.467,37.886,17.411,38.031Zm-1.373-.6c-.1.123-.312.1-.48-.067-.167-.145-.212-.357-.1-.458.1-.123.313-.1.48.067C16.083,37.116,16.138,37.339,16.038,37.429Zm-1.016-1.016c-.1.067-.29,0-.413-.167s-.123-.357,0-.435c.123-.1.312-.022.413.145a.327.327,0,0,1,0,.458ZM14.3,35.33c-.1.1-.268.045-.391-.067-.123-.145-.145-.312-.045-.391.1-.1.268-.045.391.067C14.375,35.085,14.4,35.252,14.3,35.33Zm-.748-.826a.21.21,0,0,1-.312.045c-.145-.067-.212-.19-.167-.29a.263.263,0,0,1,.312-.045C13.527,34.292,13.594,34.415,13.549,34.5Z" transform="translate(0 -2.25)"/></svg>