<svg xmlns="http://www.w3.org/2000/svg" width="41" height="41" viewBox="0 0 41 41"><defs><style>.a{fill:#fff;stroke:#000;}</style></defs><path class="a" d="M40.752,10C39.5,8.051,24.181,0,21.686,0S3.862,8.03,2.621,10s-1.248,18.031,0,20S19.193,40,21.686,40,39.5,31.959,40.751,30,42,11.953,40.752,10Zm-13.9,22.361c-.345,0-3.524-2.795-3.273-3.023A5,5,0,0,1,25.09,29.2c0-2.049.051-5.359.081-6.744,0-.156-.038-.268-.038-.457H18.248c0,.555-.04,2.828.118,5.694.02.355-.136.469-.494.464-.873,0-1.746-.009-2.619-.006-.353,0-.506-.12-.494-.477.079-2.612.258-6.562-.013-16.615v-.248a5.779,5.779,0,0,1-1.487-.144c-.252-.228,2.975-3.023,3.316-3.023s3.546,2.8,3.3,3.023a5.689,5.689,0,0,1-1.445.144v.247c-.208,2.012-.172,6.218-.227,8.234h6.914c0-.355.034-2.714-.1-6.534-.009-.265.082-.4.363-.406.954-.006,1.908-.01,2.862,0,.3,0,.394.134.388.42-.317,14.945-.059,13.9-.059,16.433a6.768,6.768,0,0,1,1.524.144c.248.227-2.9,3.023-3.237,3.023Z" transform="translate(-1.188 0.5)"/></svg>