<svg xmlns="http://www.w3.org/2000/svg" xmlns:xlink="http://www.w3.org/1999/xlink" width="618" height="368" viewBox="0 0 618 368"><defs><style>.a{fill:#3c3e40;}.b{fill:#fff;}.c{filter:url(#c);}.d{filter:url(#a);}</style><filter id="a" x="0" y="0" width="618" height="368" filterUnits="userSpaceOnUse"><feOffset dx="5" dy="5" input="SourceAlpha"/><feGaussianBlur stdDeviation="3" result="b"/><feFlood flood-color="#0006b0"/><feComposite operator="in" in2="b"/><feComposite in="SourceGraphic"/></filter><filter id="c" x="0" y="0" width="618" height="368" filterUnits="userSpaceOnUse"><feOffset dx="5" dy="5" input="SourceAlpha"/><feGaussianBlur stdDeviation="3" result="d"/><feFlood flood-color="#e0c4be" result="e"/><feComposite operator="out" in="SourceGraphic" in2="d"/><feComposite operator="in" in="e"/><feComposite operator="in" in2="SourceGraphic"/></filter></defs><g data-type="innerShadowGroup"><g class="d" transform="matrix(1, 0, 0, 1, 0, 0)"><path class="a" d="M58.708,4.868H546.573C561.3,4.868,600,17.578,600,43.137V320.814c0,25.559-38.7,34.054-53.427,34.054H58.708C11.906,354.868,0,320.814,0,320.814V43.137C0,17.578,43.98,4.868,58.708,4.868Z" transform="translate(4 -0.87)"/></g><g class="c" transform="matrix(1, 0, 0, 1, 0, 0)"><path class="b" d="M58.708,4.868H546.573C561.3,4.868,600,17.578,600,43.137V320.814c0,25.559-38.7,34.054-53.427,34.054H58.708C11.906,354.868,0,320.814,0,320.814V43.137C0,17.578,43.98,4.868,58.708,4.868Z" transform="translate(4 -0.87)"/></g></g></svg>