<svg xmlns="http://www.w3.org/2000/svg" xmlns:xlink="http://www.w3.org/1999/xlink" width="427.531" height="295.924" viewBox="0 0 427.531 295.924"><defs><style>.a{fill:#3c3e40;}.b{fill:#fff;}.c{filter:url(#c);}.d{filter:url(#a);}</style><filter id="a" x="0" y="0" width="427.531" height="295.924" filterUnits="userSpaceOnUse"><feOffset dx="5" dy="5" input="SourceAlpha"/><feGaussianBlur stdDeviation="3" result="b"/><feFlood flood-color="#e58a03"/><feComposite operator="in" in2="b"/><feComposite in="SourceGraphic"/></filter><filter id="c" x="0" y="0" width="427.531" height="295.924" filterUnits="userSpaceOnUse"><feOffset dx="5" dy="5" input="SourceAlpha"/><feGaussianBlur stdDeviation="3" result="d"/><feFlood flood-color="#e0c4be" result="e"/><feComposite operator="out" in="SourceGraphic" in2="d"/><feComposite operator="in" in="e"/><feComposite operator="in" in2="SourceGraphic"/></filter></defs><g data-type="innerShadowGroup"><g class="d" transform="matrix(1, 0, 0, 1, 0, 0)"><path class="a" d="M40.071,4.868H373.064c10.052,0,36.467,10.093,36.467,30.389V255.751c0,20.3-26.414,27.041-36.467,27.041H40.071C8.126,282.792,0,255.751,0,255.751V35.256C0,14.961,30.019,4.868,40.071,4.868Z" transform="translate(4 -0.87)"/></g><g class="c" transform="matrix(1, 0, 0, 1, 0, 0)"><path class="b" d="M40.071,4.868H373.064c10.052,0,36.467,10.093,36.467,30.389V255.751c0,20.3-26.414,27.041-36.467,27.041H40.071C8.126,282.792,0,255.751,0,255.751V35.256C0,14.961,30.019,4.868,40.071,4.868Z" transform="translate(4 -0.87)"/></g></g></svg>