<svg xmlns="http://www.w3.org/2000/svg" xmlns:xlink="http://www.w3.org/1999/xlink" width="518" height="718" viewBox="0 0 518 718"><defs><style>.a{fill:#3c3e40;}.b{fill:#fff;}.c{filter:url(#c);}.d{filter:url(#a);}</style><filter id="a" x="0" y="0" width="518" height="718" filterUnits="userSpaceOnUse"><feOffset dx="5" dy="5" input="SourceAlpha"/><feGaussianBlur stdDeviation="3" result="b"/><feFlood flood-color="#0006b0"/><feComposite operator="in" in2="b"/><feComposite in="SourceGraphic"/></filter><filter id="c" x="0" y="0" width="518" height="718" filterUnits="userSpaceOnUse"><feOffset dx="5" dy="5" input="SourceAlpha"/><feGaussianBlur stdDeviation="3" result="d"/><feFlood flood-color="#e0c4be" result="e"/><feComposite operator="out" in="SourceGraphic" in2="d"/><feComposite operator="in" in="e"/><feComposite operator="in" in2="SourceGraphic"/></filter></defs><g data-type="innerShadowGroup"><g class="d" transform="matrix(1, 0, 0, 1, 0, 0)"><path class="a" d="M48.923,4.868H455.478C467.751,4.868,500,30.288,500,81.407V636.76c0,51.119-32.249,68.108-44.522,68.108H48.923C9.922,704.868,0,636.76,0,636.76V81.407C0,30.288,36.65,4.868,48.923,4.868Z" transform="translate(4 -0.87)"/></g><g class="c" transform="matrix(1, 0, 0, 1, 0, 0)"><path class="b" d="M48.923,4.868H455.478C467.751,4.868,500,30.288,500,81.407V636.76c0,51.119-32.249,68.108-44.522,68.108H48.923C9.922,704.868,0,636.76,0,636.76V81.407C0,30.288,36.65,4.868,48.923,4.868Z" transform="translate(4 -0.87)"/></g></g></svg>