<svg xmlns="http://www.w3.org/2000/svg" width="30" height="27" viewBox="0 0 30 27"><defs><style>.a{fill:#fff;}</style></defs><path class="a" d="M625.162,520.19q-6,0-7.5,9,2.25-4.5,5.25-3.375c1.141.428,1.957,1.67,2.86,3.044,1.471,2.239,3.173,4.831,6.89,4.831q6,0,7.5-9-2.25,4.5-5.25,3.375c-1.141-.428-1.957-1.67-2.86-3.044C630.582,522.781,628.88,520.19,625.162,520.19Zm-7.5,13.5q-6,0-7.5,9,2.25-4.5,5.25-3.375c1.141.428,1.957,1.67,2.859,3.044,1.471,2.239,3.173,4.831,6.891,4.831q6,0,7.5-9-2.25,4.5-5.25,3.375c-1.141-.428-1.957-1.67-2.86-3.044-1.471-2.239-3.173-4.831-6.89-4.831Z" transform="translate(-610.162 -520.19)"/></svg>